<svg width="29" height="42" viewBox="0 0 29 42" fill="none" xmlns="http://www.w3.org/2000/svg">
<g clip-path="url(#clip0)">
<path d="M19.9968 21L28.2412 12.7911C29.2529 11.7838 29.2529 10.1505 28.2412 9.14238L26.4089 7.31801C25.3972 6.31066 23.7569 6.31066 22.7444 7.31801L14.5 15.5269L6.2556 7.31801C5.24389 6.31066 3.60358 6.31066 2.59105 7.31801L0.758778 9.14238C-0.252926 10.1497 -0.252926 11.783 0.758778 12.7911L9.00318 21L0.758778 29.2089C-0.252926 30.2162 -0.252926 31.8495 0.758778 32.8576L2.59105 34.682C3.60276 35.6893 5.24389 35.6893 6.2556 34.682L14.5 26.4731L22.7444 34.682C23.7561 35.6893 25.3972 35.6893 26.4089 34.682L28.2412 32.8576C29.2529 31.8503 29.2529 30.217 28.2412 29.2089L19.9968 21Z" fill="white"/>
</g>
<defs>
<clipPath id="clip0">
<rect width="29" height="42" fill="white"/>
</clipPath>
</defs>
</svg>
