<svg width="91" height="104" viewBox="0 0 91 104" fill="none" xmlns="http://www.w3.org/2000/svg">
<path d="M3.25 26.8125H87.75C89.545 26.8125 91 25.3575 91 23.5625V15.4375C91 13.6425 89.545 12.1875 87.75 12.1875H3.25C1.45498 12.1875 0 13.6425 0 15.4375V23.5625C0 25.3575 1.45498 26.8125 3.25 26.8125ZM3.25 59.3125H87.75C89.545 59.3125 91 57.8575 91 56.0625V47.9375C91 46.1425 89.545 44.6875 87.75 44.6875H3.25C1.45498 44.6875 0 46.1425 0 47.9375V56.0625C0 57.8575 1.45498 59.3125 3.25 59.3125ZM3.25 91.8125H87.75C89.545 91.8125 91 90.3575 91 88.5625V80.4375C91 78.6425 89.545 77.1875 87.75 77.1875H3.25C1.45498 77.1875 0 78.6425 0 80.4375V88.5625C0 90.3575 1.45498 91.8125 3.25 91.8125Z" fill="white"/>
</svg>
