<svg width="58" height="51" viewBox="0 0 58 51" fill="none" xmlns="http://www.w3.org/2000/svg">
<path d="M53.1788 30.0142L57.9389 9.29545C58.2826 7.79951 57.1331 6.375 55.5823 6.375H16.0314L15.1084 1.9115C14.8784 0.798967 13.8888 0 12.7408 0H2.41667C1.08196 0 0 1.0703 0 2.39062V3.98438C0 5.3047 1.08196 6.375 2.41667 6.375H9.4535L16.5271 40.5843C14.8348 41.5471 13.6944 43.3522 13.6944 45.4219C13.6944 48.5026 16.2191 51 19.3333 51C22.4476 51 24.9722 48.5026 24.9722 45.4219C24.9722 43.8606 24.323 42.45 23.2781 41.4375H44.3884C43.3436 42.45 42.6944 43.8606 42.6944 45.4219C42.6944 48.5026 45.2191 51 48.3333 51C51.4476 51 53.9722 48.5026 53.9722 45.4219C53.9722 43.2133 52.6745 41.3048 50.7924 40.4011L51.3479 37.9829C51.6916 36.487 50.5422 35.0625 48.9914 35.0625H21.9632L21.3041 31.875H50.8222C51.9506 31.875 52.9287 31.1026 53.1788 30.0142Z" fill="white"/>
</svg>
